<svg xmlns="http://www.w3.org/2000/svg" version="1.1" xmlns:xlink="http://www.w3.org/1999/xlink" xmlns:svgjs="http://svgjs.dev/svgjs" width="100%" height="100%" viewBox="0 0 1000 600"><rect width="1000" height="600" x="0" y="0" fill="#394053"/><g><rect width="333.3333333333333" height="333.3333333333333" rx="13.333333333333334" ry="13.333333333333334" y="254.48379934171834" fill="#6e6362" transform="matrix(0.5381863540327186,0,0,0.5381863540327188,0,73.3425759838412)" x="232.26155090332028"/><path d="M386.63648313982316 496.15047487794106L316.48177349328256 496.15047487794106L316.48177349328256 482.2011378453501L354.30054281564526 423.26710149742013Q358.53379683284834 416.63670363915026 362.1040110642245 410.94986239917256Q365.6997268258247 405.26302115919486 367.9948645459951 398.93864166361436Q370.2900022661654 392.5887606378097 370.2900022661654 384.3262648451964L370.2900022661654 384.3262648451964Q370.2900022661654 374.04914816487803 366.97480333703044 368.18379621333156Q363.6851059381196 362.29294273156097 355.4226101455063 362.29294273156097L355.4226101455063 362.29294273156097Q348.4351908640988 362.29294273156097 344.58445980025743 366.1436737954024Q340.733728736416 370.01990638946785 339.25463998341735 376.24227976415193Q337.77555123041867 382.49015466906013 337.77555123041867 389.65608466203645L337.77555123041867 389.65608466203645L337.77555123041867 394.6033815255148L318.13937295785007 394.6033815255148L318.13937295785007 389.4775739504677Q318.13937295785007 376.0637690525831 321.70958718922617 366.42419062786763Q325.3053029508264 356.7846122031521 333.2872819109744 351.454792386312Q341.2692608711224 346.1504740996961 354.50455505743815 346.1504740996961L354.50455505743815 346.1504740996961Q372.4831338654393 346.1504740996961 381.3066633229831 356.3255846591181Q390.10469125030284 366.5261967487641 390.10469125030284 384.5047755567652L390.10469125030284 384.5047755567652Q390.10469125030284 394.06784939080836 387.80955353013246 401.23377938378474Q385.51441580996214 408.37420784653693 381.84219545768957 414.62208275144513Q378.169975105417 420.86995765635334 373.7837119068692 427.47485398439915L373.7837119068692 427.47485398439915L339.61166140655496 479.6254832927145L386.63648313982316 479.6254832927145L386.63648313982316 496.15047487794106ZM464.6711656256154 496.15047487794106L445.92754091089074 496.15047487794106L445.92754091089074 456.3170846678733L402.778951771688 456.3170846678733L402.778951771688 435.7373497770124L441.5157761821188 347.4255506109019L464.6711656256154 347.4255506109019L464.6711656256154 438.8740379945786L481.37466792241077 438.8740379945786L481.37466792241077 456.3170846678733L464.6711656256154 456.3170846678733L464.6711656256154 496.15047487794106ZM445.92754091089074 371.2949829006736L421.70108719798145 438.8740379945786L445.92754091089074 438.8740379945786L445.92754091089074 371.2949829006736Z " fill="#072c50" transform="matrix(0.5381863540327186,0,0,0.5381863540327188,0,73.3425759838412)"/><path d="M676.9310264187015 468.7573444127255L648.9282227364466 468.7573444127255L648.9282227364466 346.15047423636616L675.564523236009 346.15047423636616Q689.18750881116 346.15047423636616 697.1342503966647 350.31305316210677Q705.0809919821695 354.4756320878474 708.4867383759573 362.8007899393286Q711.892484769745 371.12594779080973 711.892484769745 383.5295920644812L711.892484769745 383.5295920644812L711.892484769745 428.6452202192252Q711.892484769745 441.65853514363647 708.4867383759573 450.59336364585744Q705.0809919821695 459.5281921480784 697.4285741590908 464.1322567174582Q689.7971794618998 468.7573444127255 676.9310264187015 468.7573444127255L676.9310264187015 468.7573444127255ZM666.0200240830482 358.86946539835134L666.0200240830482 456.50086202026705L675.7116851172219 456.50086202026705Q685.0879992630821 456.50086202026705 689.0403469299468 452.86386124171594Q692.9716714709241 449.2268604631648 693.7915733805397 442.2682057943763Q694.6324984160428 435.3095511255877 694.6324984160428 425.47072821020083L694.6324984160428 425.47072821020083L694.6324984160428 385.6529277791267Q694.6324984160428 376.1294517520535 693.4131571145632 370.22195337764384Q692.2148389389713 364.31445500323423 688.1153293908934 361.581448637849Q684.0368429687031 358.86946539835134 675.2491763476952 358.86946539835134L675.2491763476952 358.86946539835134L666.0200240830482 358.86946539835134ZM744.58344552493 468.7573444127255L728.3956385914943 468.7573444127255L728.3956385914943 381.2590944686227L744.58344552493 381.2590944686227L744.58344552493 468.7573444127255ZM744.58344552493 368.2457795442114L728.3956385914943 368.2457795442114L728.3956385914943 351.301140078823L744.58344552493 351.301140078823L744.58344552493 368.2457795442114ZM785.1580784879569 496.1504774442406L785.1580784879569 496.1504774442406Q777.1272443989019 496.1504774442406 770.6941678773028 494.4055579955716Q764.2610913557037 492.68166167279014 760.5610211994898 489.044660894239Q756.8399279173884 485.40766011568786 756.8399279173884 479.50016174127825L756.8399279173884 479.50016174127825Q756.8399279173884 474.95916654956125 758.9632636320339 471.55342015577344Q761.0865993466793 468.1476737619857 764.4082532369167 465.73001428491415Q767.7509302530418 463.3123548078426 771.3669079057053 461.94585162515L771.3669079057053 461.94585162515L778.9352332252337 462.9970079195289Q776.9800825176889 464.82601987174826 775.1510705654695 466.71810120163036Q773.3430817391377 468.61018253151246 772.1237404376582 470.6494257426076Q770.9254222620661 472.68866895370275 770.9254222620661 475.1063284307743L770.9254222620661 475.1063284307743Q770.9254222620661 479.0586760976391 774.331168655854 481.0138268051839Q777.7369150496417 482.9900006386163 786.5035585447621 482.9900006386163L786.5035585447621 482.9900006386163Q795.1440632845569 482.9900006386163 799.3066422102975 480.9507574275212Q803.4692211360381 478.8904910905385 803.4692211360381 474.5176809059221L803.4692211360381 474.5176809059221Q803.4692211360381 471.7846745405368 802.3970417157716 470.0397550918678Q801.3458854213926 468.2948356431988 798.7810640631079 467.2436793488198Q796.1952195789358 466.19252305444087 791.3599006247927 465.73001428491415L791.3599006247927 465.73001428491415L772.2919254447588 463.3123548078426Q766.3844270703491 462.55552227588976 763.5042588237509 459.5281921480784Q760.6240905771525 456.50086202026705 760.6240905771525 452.86386124171594L760.6240905771525 452.86386124171594Q760.6240905771525 447.41887163683305 763.7355132085142 443.6347089770689Q766.8259127139883 439.8505463173047 772.1237404376582 435.1623892443746L772.1237404376582 435.1623892443746L777.5897531684286 439.38803754777797Q776.6647356293752 440.60737884925754 775.3192555725701 442.7937839415657Q773.9527523898774 445.0012121597615 773.9527523898774 447.10352474851936L773.9527523898774 447.10352474851936Q773.9527523898774 448.78537481952566 775.6976718385465 449.8365311139046Q777.421568161328 450.88768740828357 781.2057308210922 451.20303429659725L781.2057308210922 451.20303429659725L795.9008958165097 452.56953747928986Q806.1812043755357 453.47353189245575 811.1847083367795 458.77135961612555Q816.1882122980232 464.06918733979546 816.1882122980232 473.90801025518226L816.1882122980232 473.90801025518226Q816.1882122980232 481.160988686397 812.7824659042354 486.1644926476407Q809.3767195104477 491.16799660888444 802.5652267228721 493.64872546361875Q795.7537339352966 496.1504774442406 785.1580784879569 496.1504774442406ZM785.7467260128092 441.8056970248495L785.7467260128092 441.8056970248495Q776.8329206364757 441.8056970248495 771.2197460244922 437.8743724838723Q765.6275945383962 433.9430479428951 762.9786806765613 426.9843932741065Q760.3297668147264 420.02573860531794 760.3297668147264 411.090910103097L760.3297668147264 411.090910103097Q760.3297668147264 400.93674029939643 763.2099350613247 394.06217813415816Q766.0690801820355 387.16659284303233 771.7453241716818 383.61368456803154Q777.421568161328 380.0607762930307 785.7467260128092 380.0607762930307L785.7467260128092 380.0607762930307Q794.3872307526041 380.0607762930307 799.8322203574869 384.37051709998434Q805.2772099623699 388.680257906938 807.863054446542 395.80709758282717Q810.4278758048266 402.9129141328288 810.4278758048266 411.53239574673614L810.4278758048266 411.53239574673614Q810.4278758048266 420.4672242489571 808.0732857054178 427.36280954008294Q805.7397187318966 434.23737170532115 800.3577985046765 438.02153436508536Q794.9969014033438 441.8056970248495 785.7467260128092 441.8056970248495ZM785.7467260128092 430.15888528313087L785.7467260128092 430.15888528313087Q789.0894030289342 430.15888528313087 791.0445537364791 428.8764746039886Q793.0207275699114 427.5940639248463 794.0088144866276 425.15538132188715Q794.9969014033438 422.7377218448156 795.3753176693202 419.18481356981476Q795.7537339352966 415.631905294814 795.7537339352966 411.090910103097L795.7537339352966 411.090910103097Q795.7537339352966 406.54991491138 795.4383870469829 402.9129141328288Q795.1440632845569 399.2759133542777 794.0718838642904 396.77416137365583Q793.0207275699114 394.2934325189215 791.0445537364791 392.9269293362289Q789.0894030289342 391.5604261535363 785.9149110199098 391.5604261535363L785.9149110199098 391.5604261535363Q782.5722340037847 391.5604261535363 780.5329907926897 392.8428368326786Q778.4937475815944 394.12524751182093 777.3584987836653 396.6269994924428Q776.2232499857361 399.12875147306465 775.8448337197595 402.76575225161577Q775.4664174537832 406.4027530301669 775.4664174537832 411.090910103097L775.4664174537832 411.090910103097Q775.4664174537832 415.16939652528725 775.8448337197595 418.65923542262533Q776.2232499857361 422.1280511940758 777.2744062801149 424.713895678248Q778.3465857003814 427.2787170365326 780.3858289114766 428.72931272277555Q782.4250721225718 430.15888528313087 785.7467260128092 430.15888528313087ZM807.4005456770153 395.95425946404026L807.4005456770153 395.95425946404026L803.6163830172511 389.89959920841756Q804.8357243187307 387.7762634937721 809.061372622134 384.6017714847477Q813.3080440514249 381.4272794757233 818.1433630055681 379.3039437610779L818.1433630055681 379.3039437610779L822.390034434859 389.89959920841756Q820.2666987202135 390.3410848520567 816.7137904452127 391.5604261535363Q813.160882170212 392.7797674550159 810.2807139236136 394.06217813415816Q807.4005456770153 395.34458881330045 807.4005456770153 395.95425946404026ZM845.9990048066098 468.7573444127255L829.8111978731743 468.7573444127255L829.8111978731743 381.2590944686227L845.9990048066098 381.2590944686227L845.9990048066098 468.7573444127255ZM845.9990048066098 368.2457795442114L829.8111978731743 368.2457795442114L829.8111978731743 351.301140078823L845.9990048066098 351.301140078823L845.9990048066098 368.2457795442114ZM886.7207996508499 469.9766857142051L886.7207996508499 469.9766857142051Q879.9093068632744 469.9766857142051 875.7467279375338 467.3908412300329Q871.5841490117932 464.82601987174826 869.6920676819111 460.1378627988182Q867.7999863520291 455.42868260000057 867.7999863520291 449.0796985819518L867.7999863520291 449.0796985819518L867.7999863520291 392.022934923063L858.570834087382 392.022934923063L858.570834087382 381.2590944686227L867.7999863520291 381.2590944686227L867.7999863520291 355.69497338932695L883.9877932854647 355.69497338932695L883.9877932854647 381.2590944686227L898.0732876301425 381.2590944686227L898.0732876301425 392.022934923063L883.9877932854647 392.022934923063L883.9877932854647 448.0285422875728Q883.9877932854647 453.15818500414207 885.6486202305834 455.36561322233786Q887.3304703015897 457.55201831464603 892.0186273745197 457.55201831464603L892.0186273745197 457.55201831464603Q893.2169455501117 457.55201831464603 894.8147031175678 457.404856433433Q896.4124606850238 457.2576945522199 897.9261257489294 457.11053267100687L897.9261257489294 457.11053267100687L897.9261257489294 469.0516681751516Q894.8987956211181 469.5141769446783 892.3129511369459 469.74543132944166Q889.7481297786613 469.9766857142051 886.7207996508499 469.9766857142051ZM923.1959230657991 469.9766857142051L923.1959230657991 469.9766857142051Q918.0452572233423 469.9766857142051 914.1139326823651 467.01242496405644Q910.1826081413878 464.06918733979546 907.9121105455293 459.4440996445281Q905.6416129496708 454.84003507514836 905.6416129496708 449.68936923269155L905.6416129496708 449.68936923269155Q905.6416129496708 441.51137326242343 908.3535961891685 435.9192217763275Q911.0866025545537 430.3060471643439 915.858852131034 426.458815126917Q920.6311017075144 422.5905599636026 926.8959932220129 419.71039171700426Q933.181907862399 416.83022347040594 940.1405625311876 414.1182402309083L940.1405625311876 414.1182402309083L940.1405625311876 407.9164180940726Q940.1405625311876 402.6185903704027 939.5519150063354 399.12875147306465Q938.9422443555956 395.6389125757266 937.0501630257135 393.9150162529451Q935.1580816958314 392.17009680427606 931.3739190360672 392.17009680427606L931.3739190360672 392.17009680427606Q928.0312420199422 392.17009680427606 925.9919988088471 393.68376186818176Q923.9527555977519 395.1974269320874 923.048761184586 397.9935026751354Q922.1447667714202 400.7895784181834 922.1447667714202 404.57374107794755L922.1447667714202 404.57374107794755L922.1447667714202 408.9675743884515L906.08309859331 408.3579037377117Q906.3984454816236 393.8309237493948 912.7474294996724 386.935338458269Q919.1174366436088 380.0607762930307 932.4250753304461 380.0607762930307L932.4250753304461 380.0607762930307Q945.4383902548574 380.0607762930307 950.9044029856278 387.16659284303233Q956.3493925905108 394.2934325189215 956.3493925905108 407.74823308697194L956.3493925905108 407.74823308697194L956.3493925905108 447.7131953992591Q956.3493925905108 451.812704947337 956.5806469752741 455.5968676071012Q956.7908782341499 459.38103026686537 957.1692945001264 462.61859165355247Q957.5477107661028 465.8771761661272 957.8630576544164 468.7573444127255L957.8630576544164 468.7573444127255L943.0207307777858 468.7573444127255Q942.5792451341467 466.33968493565396 941.8854819798565 462.61859165355247Q941.2127419514541 458.91852149733865 940.8973950631404 455.8911913695273L940.8973950631404 455.8911913695273Q939.3837299992348 461.04185721198405 935.0739891922811 465.4987599001508Q930.7642483853275 469.9766857142051 923.1959230657991 469.9766857142051ZM929.5449070838479 456.03835325074033L929.5449070838479 456.03835325074033Q931.983589686807 456.03835325074033 934.0859022755649 454.6718500680477Q936.2092379902103 453.32637001124266 937.870064935329 451.58145056257365Q939.5519150063354 449.8365311139046 940.1405625311876 448.78537481952566L940.1405625311876 448.78537481952566L940.1405625311876 423.9570631462951Q936.3563998714234 426.0803988609406 933.034745981186 428.1827114496985Q929.7130920909484 430.3060471643439 927.2113401103267 432.66063726375273Q924.7095881297047 434.994204237274 923.2800155693493 437.95846498742264Q921.8294198831064 440.9017026116836 921.8294198831064 444.6858652714478L921.8294198831064 444.6858652714478Q921.8294198831064 449.9836929951177 923.8055937165389 453.01102312292903Q925.7607444240837 456.03835325074033 929.5449070838479 456.03835325074033ZM989.6500239964356 468.7573444127255L973.4411939371123 468.7573444127255L973.4411939371123 346.15047423636616L989.6500239964356 346.15047423636616L989.6500239964356 468.7573444127255ZM1056.251286808285 468.7573444127255L1042.3129543448204 468.7573444127255L1044.583451940679 346.15047423636616L1061.4019526507418 346.15047423636616L1083.0347491890602 445.5898596846137L1104.8357307344795 346.15047423636616L1121.486046437442 346.15047423636616L1123.7565440333005 468.7573444127255L1109.9863965769364 468.7573444127255L1108.6198933942437 379.745429404717L1087.8910912690912 468.7573444127255L1078.1994302349171 468.7573444127255L1057.6177899909776 379.745429404717L1056.251286808285 468.7573444127255ZM1165.3823332907064 469.9766857142051L1165.3823332907064 469.9766857142051Q1155.081001605793 469.9766857142051 1149.488850119697 465.9612686696775Q1143.8966986336009 461.94585162515 1141.6892704154052 454.1462719208582Q1139.502865323097 446.34669221656657 1139.502865323097 434.994204237274L1139.502865323097 434.994204237274L1139.502865323097 415.02223464407416Q1139.502865323097 403.3754229023556 1141.7733629189556 395.6389125757266Q1144.0438605148138 387.9234253749852 1149.7201045044603 383.99210083400794Q1155.3963484941064 380.0607762930307 1165.3823332907064 380.0607762930307L1165.3823332907064 380.0607762930307Q1176.4404975075727 380.0607762930307 1181.6542327276925 384.6017714847477Q1186.8679679478118 389.14276667646476 1188.5498180188183 397.69917891270927Q1190.2106449639368 406.2345680230663 1190.2106449639368 418.1967266530986L1190.2106449639368 418.1967266530986L1190.2106449639368 425.3235663289878L1155.6906722565327 425.3235663289878L1155.6906722565327 442.87787644511604Q1155.6906722565327 448.1757041687859 1156.6787591732486 451.4973580590233Q1157.666846089965 454.84003507514836 1159.8532511822732 456.4167695167167Q1162.0606794004689 458.01452708417276 1165.5294951719193 458.01452708417276L1165.5294951719193 458.01452708417276Q1169.1664959504706 458.01452708417276 1171.058577280353 456.2696076355037Q1172.9506586102348 454.5246881868347 1173.6233986386374 451.26610367425997Q1174.3171617929274 448.0285422875728 1174.3171617929274 443.6347089770689L1174.3171617929274 443.6347089770689L1174.3171617929274 438.33688125339904L1190.063483082724 438.33688125339904L1190.063483082724 441.65853514363647Q1190.063483082724 454.84003507514836 1184.4503084707403 462.4083603946767Q1178.8581569846442 469.9766857142051 1165.3823332907064 469.9766857142051ZM1155.6906722565327 411.8477426350498L1155.6906722565327 416.53589970797987L1174.3171617929274 416.53589970797987L1174.3171617929274 408.6732506260254Q1174.3171617929274 403.20723789525493 1173.7074911421878 399.50716773904105Q1173.0978204914477 395.80709758282717 1171.2057391615658 393.9150162529451Q1169.3136578316835 392.022934923063 1165.2351714094934 392.022934923063L1165.2351714094934 392.022934923063Q1161.3038468685163 392.022934923063 1159.2435805315336 393.8309237493948Q1157.2043373204383 395.6389125757266 1156.4475047884853 399.9696765085678Q1155.6906722565327 404.2794173155214 1155.6906722565327 411.8477426350498L1155.6906722565327 411.8477426350498ZM1225.1721033149802 469.9766857142051L1225.1721033149802 469.9766857142051Q1214.1139390981139 469.9766857142051 1208.6689494932311 461.8617591215997Q1203.223959888348 453.7678556548818 1203.223959888348 434.4055567124218L1203.223959888348 434.4055567124218L1203.223959888348 417.43989412114576Q1203.223959888348 407.45390932454586 1204.884786833467 398.8974970883013Q1206.5456137785854 390.3410848520567 1211.1707014738531 385.2114421354875Q1215.7957891691203 380.0607762930307 1224.7095945454535 380.0607762930307L1224.7095945454535 380.0607762930307Q1229.1034278559578 380.0607762930307 1232.7404286345086 382.0159270005755Q1236.3774294130599 383.99210083400794 1239.2575976596581 386.8722690806062L1239.2575976596581 386.8722690806062L1239.2575976596581 346.15047423636616L1255.4454045930938 346.15047423636616L1255.4454045930938 468.7573444127255L1239.2575976596581 468.7573444127255L1239.2575976596581 463.1651929266295Q1236.3774294130599 466.19252305444087 1232.971683019272 468.084604384323Q1229.5659366254845 469.9766857142051 1225.1721033149802 469.9766857142051ZM1229.2505897371707 457.2576945522199L1229.2505897371707 457.2576945522199Q1231.5210873330293 457.2576945522199 1234.1069318172013 456.4167695167167Q1236.6717531754862 455.5968676071012 1239.2575976596581 453.91501753609487L1239.2575976596581 453.91501753609487L1239.2575976596581 396.56393011478Q1237.134261945013 395.0502650508744 1234.5484174608405 393.9150162529451Q1231.983596102556 392.7797674550159 1228.9562659747444 392.7797674550159L1228.9562659747444 392.7797674550159Q1223.3641144886487 392.7797674550159 1221.387940655216 398.14066455634844Q1219.4117668217837 403.5225847835686 1219.4117668217837 411.090910103097L1219.4117668217837 411.090910103097L1219.4117668217837 435.75103676922686Q1219.4117668217837 441.8056970248495 1220.1055299760737 446.72510848254296Q1220.7782700044763 451.64451994023636 1222.901605719122 454.4616188091719Q1225.0249414337673 457.2576945522199 1229.2505897371707 457.2576945522199ZM1289.0403597614445 468.7573444127255L1272.8525528280088 468.7573444127255L1272.8525528280088 381.2590944686227L1289.0403597614445 381.2590944686227L1289.0403597614445 468.7573444127255ZM1289.0403597614445 368.2457795442114L1272.8525528280088 368.2457795442114L1272.8525528280088 351.301140078823L1289.0403597614445 351.301140078823L1289.0403597614445 368.2457795442114ZM1319.6290079278715 469.9766857142051L1319.6290079278715 469.9766857142051Q1314.4783420854146 469.9766857142051 1310.5470175444375 467.01242496405644Q1306.6156930034604 464.06918733979546 1304.3451954076018 459.4440996445281Q1302.0746978117436 454.84003507514836 1302.0746978117436 449.68936923269155L1302.0746978117436 449.68936923269155Q1302.0746978117436 441.51137326242343 1304.786681051241 435.9192217763275Q1307.5196874166263 430.3060471643439 1312.2919369931064 426.458815126917Q1317.0431634436995 422.5905599636026 1323.3290780840853 419.71039171700426Q1329.6149927244714 416.83022347040594 1336.5736473932602 414.1182402309083L1336.5736473932602 414.1182402309083L1336.5736473932602 407.9164180940726Q1336.5736473932602 402.6185903704027 1335.9639767425201 399.12875147306465Q1335.375329217668 395.6389125757266 1333.483247887786 393.9150162529451Q1331.5911665579038 392.17009680427606 1327.8070038981396 392.17009680427606L1327.8070038981396 392.17009680427606Q1324.4643268820146 392.17009680427606 1322.4250836709198 393.68376186818176Q1320.3858404598245 395.1974269320874 1319.4818460466586 397.9935026751354Q1318.5568285076051 400.7895784181834 1318.5568285076051 404.57374107794755L1318.5568285076051 404.57374107794755L1318.5568285076051 408.9675743884515L1302.5161834553824 408.3579037377117Q1302.8315303436962 393.8309237493948 1309.1805143617453 386.935338458269Q1315.529498379794 380.0607762930307 1328.8581601925189 380.0607762930307L1328.8581601925189 380.0607762930307Q1341.87147511693 380.0607762930307 1347.3164647218127 387.16659284303233Q1352.7824774525834 394.2934325189215 1352.7824774525834 407.74823308697194L1352.7824774525834 407.74823308697194L1352.7824774525834 447.7131953992591Q1352.7824774525834 451.812704947337 1352.9927087114593 455.5968676071012Q1353.2239630962226 459.38103026686537 1353.602379362199 462.61859165355247Q1353.9807956281752 465.8771761661272 1354.296142516489 468.7573444127255L1354.296142516489 468.7573444127255L1339.4538156398585 468.7573444127255Q1338.9913068703318 466.33968493565396 1338.3185668419292 462.61859165355247Q1337.6458268135266 458.91852149733865 1337.3304799252128 455.8911913695273L1337.3304799252128 455.8911913695273Q1335.8168148613072 461.04185721198405 1331.5070740543538 465.4987599001508Q1327.1973332474 469.9766857142051 1319.6290079278715 469.9766857142051ZM1325.9779919459202 456.03835325074033L1325.9779919459202 456.03835325074033Q1328.3956514229922 456.03835325074033 1330.5189871376374 454.6718500680477Q1332.642322852283 453.32637001124266 1334.3031497974016 451.58145056257365Q1335.9639767425201 449.8365311139046 1336.5736473932602 448.78537481952566L1336.5736473932602 448.78537481952566L1336.5736473932602 423.9570631462951Q1332.789484733496 426.0803988609406 1329.4678308432585 428.1827114496985Q1326.1251538271335 430.3060471643439 1323.644424972399 432.66063726375273Q1321.1426729917775 434.994204237274 1319.6920773055344 437.95846498742264Q1318.2625047451788 440.9017026116836 1318.2625047451788 444.6858652714478L1318.2625047451788 444.6858652714478Q1318.2625047451788 449.9836929951177 1320.2386785786116 453.01102312292903Q1322.1938292861564 456.03835325074033 1325.9779919459202 456.03835325074033ZM1433.3010496020102 468.7573444127255L1420.2877346775986 468.7573444127255L1400.2947419585112 346.15047423636616L1414.527398184402 346.15047423636616L1427.708898115914 434.23737170532115L1444.1910288117756 346.6129830058929L1456.3003493230212 346.6129830058929L1472.9506650259837 434.6998804748479L1485.8168180691819 346.15047423636616L1499.7551505326464 346.15047423636616L1480.0775047018728 468.7573444127255L1467.6528373023139 468.7573444127255L1450.5610359557122 377.93744057838524L1433.3010496020102 468.7573444127255ZM1533.3501057009971 469.9766857142051L1533.3501057009971 469.9766857142051Q1523.0697971419713 469.9766857142051 1517.4566225299877 465.9612686696775Q1511.8644710438916 461.94585162515 1509.657042825696 454.1462719208582Q1507.4706377333878 446.34669221656657 1507.4706377333878 434.994204237274L1507.4706377333878 434.994204237274L1507.4706377333878 415.02223464407416Q1507.4706377333878 403.3754229023556 1509.7411353292464 395.6389125757266Q1512.011632925105 387.9234253749852 1517.687876914751 383.99210083400794Q1523.3641209043976 380.0607762930307 1533.3501057009971 380.0607762930307L1533.3501057009971 380.0607762930307Q1544.408269917864 380.0607762930307 1549.6220051379833 384.6017714847477Q1554.85676348399 389.14276667646476 1556.517590429109 397.69917891270927Q1558.1784173742276 406.2345680230663 1558.1784173742276 418.1967266530986L1558.1784173742276 418.1967266530986L1558.1784173742276 425.3235663289878L1523.6584446668235 425.3235663289878L1523.6584446668235 442.87787644511604Q1523.6584446668235 448.1757041687859 1524.6465315835394 451.4973580590233Q1525.6346185002558 454.84003507514836 1527.821023592564 456.4167695167167Q1530.0284518107596 458.01452708417276 1533.4972675822105 458.01452708417276L1533.4972675822105 458.01452708417276Q1537.1342683607613 458.01452708417276 1539.0263496906437 456.2696076355037Q1540.9184310205255 454.5246881868347 1541.6121941748156 451.26610367425997Q1542.2849342032182 448.0285422875728 1542.2849342032182 443.6347089770689L1542.2849342032182 443.6347089770689L1542.2849342032182 438.33688125339904L1558.0312554930147 438.33688125339904L1558.0312554930147 441.65853514363647Q1558.0312554930147 454.84003507514836 1552.418080881031 462.4083603946767Q1546.825929394935 469.9766857142051 1533.3501057009971 469.9766857142051ZM1523.6584446668235 411.8477426350498L1523.6584446668235 416.53589970797987L1542.2849342032182 416.53589970797987L1542.2849342032182 408.6732506260254Q1542.2849342032182 403.20723789525493 1541.6752635524786 399.50716773904105Q1541.0655929017385 395.80709758282717 1539.1735115718566 393.9150162529451Q1537.2814302419747 392.022934923063 1533.2029438197842 392.022934923063L1533.2029438197842 392.022934923063Q1529.271619278807 392.022934923063 1527.2323760677118 393.8309237493948Q1525.172109730729 395.6389125757266 1524.4152771987765 399.9696765085678Q1523.6584446668235 404.2794173155214 1523.6584446668235 411.8477426350498L1523.6584446668235 411.8477426350498ZM1604.1980399421377 469.9766857142051L1604.1980399421377 469.9766857142051Q1599.5098828692076 469.9766857142051 1595.7887895871063 467.62209561479625Q1592.0887194308925 465.2675055153874 1589.3557130655072 462.4083603946767L1589.3557130655072 462.4083603946767L1589.3557130655072 468.7573444127255L1573.1679061320715 468.7573444127255L1573.1679061320715 346.15047423636616L1589.3557130655072 346.15047423636616L1589.3557130655072 388.23877226329887Q1592.2358813121054 384.89609524717383 1596.251298356633 382.4784357701023Q1600.2667154011606 380.0607762930307 1605.8588668872562 380.0607762930307L1605.8588668872562 380.0607762930307Q1612.670359674832 380.0607762930307 1616.6857767193596 383.61368456803154Q1620.7011937638872 387.16659284303233 1622.656344471432 392.5485130702525Q1624.6325183048643 397.9094101715851 1625.242188955604 403.4384922800183Q1625.8308364804561 408.9675743884515 1625.8308364804561 412.89889892942875L1625.8308364804561 412.89889892942875L1625.8308364804561 434.0902098241081Q1625.8308364804561 443.3193620887552 1624.0228476541247 451.58145056257365Q1622.2148588277928 459.82251591050453 1617.5056786289751 464.889089249411Q1612.817521556045 469.9766857142051 1604.1980399421377 469.9766857142051ZM1600.8553629260127 457.2576945522199L1600.8553629260127 457.2576945522199Q1605.1020343553037 457.2576945522199 1606.9100231816356 454.1462719208582Q1608.7390351338545 451.05587241538416 1609.1805207774937 445.7580446917143Q1609.6430295470204 440.4602169680445 1609.6430295470204 434.0902098241081L1609.6430295470204 434.0902098241081L1609.6430295470204 412.89889892942875Q1609.6430295470204 407.45390932454586 1609.0333588962808 402.82882162927854Q1608.4236882455411 398.22475705989876 1606.4685375379963 395.49175069451354Q1604.4923637045636 392.7797674550159 1600.2667154011606 392.7797674550159L1600.2667154011606 392.7797674550159Q1597.0712002662485 392.7797674550159 1594.2751245232007 394.12524751182093Q1591.4790487801524 395.49175069451354 1589.3557130655072 397.1525776396322L1589.3557130655072 397.1525776396322L1589.3557130655072 453.32637001124266Q1591.4790487801524 454.9871969563614 1594.4222864044136 456.12244575429065Q1597.3865471545619 457.2576945522199 1600.8553629260127 457.2576945522199Z " fill="#6e6362" transform="matrix(0.5381863540327186,0,0,0.5381863540327188,0,73.3425759838412)"/></g></svg>